<?xml version="1.0" encoding="utf-8"?>
<!-- Generator: Adobe Illustrator 19.2.1, SVG Export Plug-In . SVG Version: 6.00 Build 0)  -->
<svg version="1.1" id="Layer_1" xmlns="http://www.w3.org/2000/svg" xmlns:xlink="http://www.w3.org/1999/xlink" x="0px" y="0px"
	 viewBox="0 0 40 40" style="enable-background:new 0 0 40 40;" xml:space="preserve">
<style type="text/css">
	.st0{fill:#FFFFFF;}
</style>
<path class="st0" d="M26.3,20c0,3.5-2.8,6.3-6.3,6.3s-6.3-2.8-6.3-6.3c0-0.4,0-0.7,0.1-1h-2.2v8.3c0,0.6,0.5,1,1,1h14.6
	c0.6,0,1-0.5,1-1V19h-2.2C26.2,19.3,26.3,19.6,26.3,20z M20,24.2c2.3,0,4.2-1.9,4.2-4.2s-1.9-4.2-4.2-4.2s-4.2,1.9-4.2,4.2
	S17.7,24.2,20,24.2z M25,15.6h2.5c0.3,0,0.6-0.3,0.6-0.6v-2.5c0-0.3-0.3-0.6-0.6-0.6H25c-0.3,0-0.6,0.3-0.6,0.6V15
	C24.4,15.3,24.7,15.6,25,15.6z M20,0C9,0,0,9,0,20s9,20,20,20s20-9,20-20S31,0,20,0z M30.4,28.1c0,1.3-1,2.3-2.3,2.3H11.9
	c-1.3,0-2.3-1-2.3-2.3V11.9c0-1.3,1-2.3,2.3-2.3h16.2c1.3,0,2.3,1,2.3,2.3V28.1z"/>
</svg>
