<?xml version="1.0" encoding="utf-8"?>
<!-- Generator: Adobe Illustrator 19.2.1, SVG Export Plug-In . SVG Version: 6.00 Build 0)  -->
<svg version="1.1" id="Слой_1" xmlns="http://www.w3.org/2000/svg" xmlns:xlink="http://www.w3.org/1999/xlink" x="0px" y="0px"
	 viewBox="0 0 217.6 141.8" style="enable-background:new 0 0 217.6 141.8;" xml:space="preserve">
<style type="text/css">
	.st0{fill:#DD61F7;}
	.st1{fill:#89067D;}
	.st2{fill:#C909B7;}
	.st3{fill:#D81681;}
</style>
<g>
	<g>
		<path class="st0" d="M4.5,138.8v-6.3H2.4v-1h5.4v1H5.7v6.3H4.5z"/>
		<path class="st0" d="M13.6,140.7c0.2,0.1,0.4,0.1,0.6,0.1c0.5,0,0.8-0.2,1.1-0.8l0.5-1.1l-3.1-7.4h1.2l2.4,6l2.4-6h1.2l-3.7,8.8
			c-0.4,1.1-1.2,1.5-2.2,1.5c-0.2,0-0.6,0-0.8-0.1L13.6,140.7z"/>
		<path class="st0" d="M27,137.7v3.9h-1.2v-10.1h1.1v1.1c0.5-0.7,1.4-1.3,2.5-1.3c1.9,0,3.3,1.5,3.3,3.8c0,2.4-1.3,3.9-3.3,3.9
			C28.4,139,27.6,138.5,27,137.7z M31.5,135.2c0-1.6-0.9-2.8-2.4-2.8c-0.9,0-1.8,0.5-2.2,1.2v3.3c0.4,0.6,1.3,1.2,2.2,1.2
			C30.6,138,31.5,136.8,31.5,135.2z"/>
		<path class="st0" d="M47.1,135.2c0-2.1,1.4-3.8,3.6-3.8s3.6,1.7,3.6,3.8s-1.4,3.9-3.6,3.9S47.1,137.3,47.1,135.2z M53.2,135.2
			c0-1.5-0.9-2.8-2.4-2.8c-1.6,0-2.4,1.3-2.4,2.8s0.9,2.8,2.4,2.8S53.2,136.7,53.2,135.2z"/>
		<path class="st0" d="M65.7,138.8v-6.3h-3.8v6.3h-1.1v-7.3h6.1v7.3H65.7z"/>
		<path class="st0" d="M73.3,135.2c0-2.1,1.5-3.8,3.6-3.8c2.2,0,3.5,1.7,3.5,3.9v0.3h-5.9c0.1,1.4,1.1,2.5,2.6,2.5
			c0.8,0,1.7-0.3,2.3-0.9l0.5,0.7c-0.7,0.7-1.7,1.1-2.9,1.1C74.8,139,73.3,137.4,73.3,135.2z M76.9,132.3c-1.6,0-2.3,1.3-2.4,2.4
			h4.8C79.3,133.6,78.5,132.3,76.9,132.3z"/>
		<path class="st0" d="M87.9,137.7v3.9h-1.1v-10.1h1.1v1.1c0.5-0.7,1.4-1.3,2.5-1.3c1.9,0,3.3,1.5,3.3,3.8c0,2.4-1.3,3.9-3.3,3.9
			C89.4,139,88.5,138.5,87.9,137.7z M92.5,135.2c0-1.6-0.9-2.8-2.4-2.8c-0.9,0-1.8,0.5-2.2,1.2v3.3c0.4,0.6,1.3,1.2,2.2,1.2
			C91.6,138,92.5,136.8,92.5,135.2z"/>
		<path class="st0" d="M104.6,138.8V138c-0.6,0.7-1.4,1-2.4,1c-1.2,0-2.6-0.8-2.6-2.4s1.3-2.4,2.6-2.4c1,0,1.8,0.3,2.4,1v-1.3
			c0-1-0.8-1.5-1.9-1.5c-0.9,0-1.6,0.3-2.2,1l-0.5-0.8c0.8-0.8,1.7-1.2,2.9-1.2c1.5,0,2.8,0.7,2.8,2.5v5h-1.1V138.8z M104.6,137.3
			v-1.4c-0.4-0.6-1.2-0.9-2-0.9c-1.1,0-1.8,0.7-1.8,1.6s0.7,1.6,1.8,1.6C103.4,138.2,104.2,137.9,104.6,137.3z"/>
		<path class="st0" d="M113.9,138.8v-6.3h-2.1v-1h5.4v1h-2.1v6.3H113.9z"/>
		<path class="st0" d="M122.8,135.2c0-2.1,1.4-3.8,3.6-3.8c2.2,0,3.6,1.7,3.6,3.8s-1.4,3.9-3.6,3.9
			C124.2,139,122.8,137.3,122.8,135.2z M128.9,135.2c0-1.5-0.9-2.8-2.4-2.8c-1.6,0-2.4,1.3-2.4,2.8s0.9,2.8,2.4,2.8
			S128.9,136.7,128.9,135.2z"/>
		<path class="st0" d="M137.6,137.7v3.9h-1.1v-10.1h1.1v1.1c0.5-0.7,1.4-1.3,2.5-1.3c1.9,0,3.3,1.5,3.3,3.8c0,2.4-1.3,3.9-3.3,3.9
			C139.1,139,138.2,138.5,137.6,137.7z M142.2,135.2c0-1.6-0.9-2.8-2.4-2.8c-0.9,0-1.8,0.5-2.2,1.2v3.3c0.4,0.6,1.3,1.2,2.2,1.2
			C141.3,138,142.2,136.8,142.2,135.2z"/>
	</g>
	<g>
		<path class="st1" d="M9.8,93.1l-7.1-19h5.6L13,87.8l4.7-13.7h5.6l-7.2,19H9.8z"/>
		<path class="st1" d="M24.4,83.6c0-5.8,4.4-9.8,10.2-9.8c5.8,0,10.1,4,10.1,9.8s-4.3,9.8-10.1,9.8S24.4,89.4,24.4,83.6z M39.7,83.6
			c0-3.1-2-5.5-5.2-5.5s-5.2,2.4-5.2,5.5s2,5.5,5.2,5.5S39.7,86.7,39.7,83.6z"/>
		<path class="st1" d="M52.7,93.1v-7.7l-7.2-11.3H51l4.1,7l4.1-7h5.6l-7.2,11.3v7.7H52.7z"/>
		<path class="st1" d="M78.5,93.1l-0.9-2.7h-7.5l-0.9,2.7h-5.6l7.1-19h6.1l7.2,19H78.5z M73.8,78.9L71.4,86h4.8L73.8,78.9z"/>
		<path class="st1" d="M85,83.6c0-6,4.6-9.8,10.3-9.8c4.2,0,6.8,2.2,8.1,4.6l-4.1,2.1c-0.7-1.3-2.2-2.4-4-2.4
			c-3.1,0-5.3,2.4-5.3,5.5s2.2,5.5,5.3,5.5c1.4,0,2.8-0.6,3.5-1.1v-1.5h-4.3v-4.3h9.2v7.5c-2,2.2-4.8,3.7-8.4,3.7
			C89.6,93.4,85,89.6,85,83.6z"/>
		<path class="st1" d="M108,93.1v-19h13.9v4.3h-9v3h8.8v4.3h-8.8v3.2h9v4.3L108,93.1L108,93.1z"/>
		<path class="st1" d="M136.8,93.1l-3.2-6.4h-2.5v6.4h-4.9v-19h9.5c4.2,0,6.6,2.8,6.6,6.3c0,3.3-2,5.1-3.8,5.7l3.9,7H136.8z
			 M137.3,80.4c0-1.3-1.1-2-2.4-2H131v4.1h3.9C136.2,82.4,137.3,81.7,137.3,80.4z"/>
	</g>
	<g>
		<g>
			<path class="st2" d="M4.4,112.3c0-5.9,4.4-9.8,9.8-9.8c3.4,0,5.7,1.5,7.4,3.6l-1.9,1.2c-1.2-1.5-3.2-2.6-5.5-2.6
				c-4.2,0-7.3,3.2-7.3,7.7s3.2,7.7,7.3,7.7c2.3,0,4.2-1.1,5.1-2.1v-3.9h-6.5V112h8.9v6.9c-1.8,2-4.4,3.3-7.5,3.3
				C8.8,122.1,4.4,118.2,4.4,112.3z"/>
			<path class="st2" d="M47.9,121.7l-4.8-7.5h-3.8v7.5h-2.4v-19h7.6c3.5,0,6,2.2,6,5.7c0,3.4-2.3,5.3-4.9,5.5l5.1,7.7L47.9,121.7
				L47.9,121.7z M48,108.5c0-2.1-1.5-3.6-3.8-3.6h-5v7.3h5C46.5,112.1,48,110.6,48,108.5z"/>
			<path class="st2" d="M64.8,112.3c0-5.6,3.8-9.8,9.4-9.8s9.4,4.2,9.4,9.8c0,5.6-3.8,9.8-9.4,9.8C68.6,122.1,64.8,117.9,64.8,112.3
				z M81.2,112.3c0-4.4-2.7-7.7-7-7.7s-7,3.3-7,7.7c0,4.4,2.7,7.7,7,7.7C78.5,120,81.2,116.7,81.2,112.3z"/>
			<path class="st2" d="M98.8,114.4v-11.6h2.4v11.6c0,3.5,1.9,5.7,5.4,5.7s5.4-2.2,5.4-5.7v-11.6h2.4v11.6c0,4.7-2.6,7.7-7.7,7.7
				C101.4,122.1,98.8,119,98.8,114.4z"/>
			<path class="st2" d="M130.1,121.7v-19h7.6c3.8,0,6,2.6,6,5.7s-2.2,5.7-6,5.7h-5.3v7.5L130.1,121.7L130.1,121.7z M141.2,108.5
				c0-2.1-1.5-3.6-3.8-3.6h-5v7.2h5C139.7,112.1,141.2,110.6,141.2,108.5z"/>
		</g>
	</g>
	<g>
		<path class="st3" d="M176.3,93.4c-7.8,0-14.1-6.3-14.1-14.1v-24h-24c-7.8,0-14.1-6.3-14.1-14.1c0-7.8,6.3-14.1,14.1-14.1h38.2
			c7.8,0,14.1,6.3,14.1,14.1v38.2C190.5,87.1,184.1,93.4,176.3,93.4z"/>
	</g>
	<circle class="st3" cx="203.3" cy="14.3" r="14.3"/>
</g>
</svg>
