<?xml version="1.0" encoding="utf-8"?>
<!-- Generator: Adobe Illustrator 19.2.1, SVG Export Plug-In . SVG Version: 6.00 Build 0)  -->
<svg version="1.1" id="Layer_1" xmlns="http://www.w3.org/2000/svg" xmlns:xlink="http://www.w3.org/1999/xlink" x="0px" y="0px"
	 viewBox="0 0 40 40" style="enable-background:new 0 0 40 40;" xml:space="preserve">
<style type="text/css">
	.st0{fill:#FFFFFF;}
</style>
<path class="st0" d="M20,0C9,0,0,9,0,20c0,11,9,20,20,20s20-9,20-20C40,9,31,0,20,0z M31.8,12.7c-0.6,1-1.5,1.8-2.4,2.5
	c0,0.2,0,0.4,0,0.6c0,6.4-4.9,13.7-13.7,13.7c-2.7,0-5.3-0.8-7.4-2.2c0.4,0,0.8,0.1,1.2,0.1c2.3,0,4.3-0.8,6-2.1
	c-2.1,0-3.9-1.4-4.5-3.4c0.3,0.1,0.6,0.1,0.9,0.1c0.4,0,0.9-0.1,1.3-0.2c-2.2-0.4-3.9-2.4-3.9-4.7c0,0,0,0,0-0.1
	c0.7,0.4,1.4,0.6,2.2,0.6c-1.3-0.9-2.1-2.3-2.1-4c0-0.9,0.2-1.7,0.7-2.4c2.4,2.9,5.9,4.8,9.9,5c-0.1-0.4-0.1-0.7-0.1-1.1
	c0-2.7,2.2-4.8,4.8-4.8c1.4,0,2.6,0.6,3.5,1.5c1.1-0.2,2.1-0.6,3.1-1.2C30.7,12,30,12.9,29,13.5C30,13.4,30.9,13.1,31.8,12.7
	L31.8,12.7z"/>
</svg>
