<?xml version="1.0" encoding="utf-8"?>
<!-- Generator: Adobe Illustrator 19.2.1, SVG Export Plug-In . SVG Version: 6.00 Build 0)  -->
<svg version="1.1" id="Layer_1" xmlns="http://www.w3.org/2000/svg" xmlns:xlink="http://www.w3.org/1999/xlink" x="0px" y="0px"
	 viewBox="0 0 40 40" style="enable-background:new 0 0 40 40;" xml:space="preserve">
<style type="text/css">
	.st0{fill:#FFFFFF;}
</style>
<g>
	<path class="st0" d="M23.1,23.8c-0.2,0-0.4,0-0.6,0.1c-0.2,0.1-0.4,0.2-0.5,0.4v-2.7h-1.3v8.4H22v-0.5c0.2,0.2,0.3,0.3,0.5,0.4
		c0.2,0.1,0.4,0.1,0.7,0.1c0.4,0,0.7-0.1,0.8-0.4c0.2-0.2,0.3-0.6,0.3-1h0v-3.5c0-0.5-0.1-0.9-0.3-1.2C23.8,24,23.5,23.8,23.1,23.8z
		 M23,28.7c0,0.2,0,0.3-0.1,0.4c-0.1,0.1-0.2,0.1-0.3,0.1c-0.1,0-0.2,0-0.3-0.1c-0.1,0-0.2-0.1-0.3-0.2v-3.9
		c0.1-0.1,0.2-0.1,0.3-0.2c0.1,0,0.2-0.1,0.3-0.1c0.2,0,0.3,0.1,0.4,0.2c0.1,0.1,0.1,0.3,0.1,0.5V28.7z"/>
	<polygon class="st0" points="11.4,21.7 11.4,22.9 12.8,22.9 12.8,30.2 14.2,30.2 14.2,22.9 15.7,22.9 15.7,21.7 	"/>
	<path class="st0" d="M19.6,15.4c0.2,0,0.3-0.1,0.5-0.2c0.1-0.1,0.2-0.3,0.2-0.4V11c0-0.2-0.1-0.3-0.2-0.4c-0.1-0.1-0.3-0.1-0.4-0.1
		c-0.2,0-0.3,0-0.4,0.1C19.1,10.8,19,10.9,19,11v3.7c0,0.2,0.1,0.3,0.2,0.4C19.3,15.3,19.4,15.4,19.6,15.4z"/>
	<path class="st0" d="M18.5,28.7c-0.1,0.1-0.2,0.2-0.4,0.3c-0.1,0.1-0.3,0.1-0.3,0.1c-0.1,0-0.2,0-0.3-0.1c-0.1-0.1-0.1-0.2-0.1-0.3
		v-4.8h-1.2v5.2c0,0.4,0.1,0.6,0.2,0.8c0.1,0.2,0.4,0.3,0.7,0.3c0.2,0,0.5-0.1,0.7-0.2c0.2-0.1,0.5-0.3,0.7-0.6v0.7h1.2v-6.2h-1.2
		V28.7z"/>
	<path class="st0" d="M28.6,25.6c0-0.6-0.2-1-0.5-1.4c-0.3-0.3-0.7-0.5-1.3-0.5c-0.6,0-1,0.2-1.4,0.5c-0.4,0.3-0.5,0.8-0.5,1.3v2.8
		c0,0.6,0.2,1.1,0.5,1.4c0.3,0.3,0.8,0.5,1.3,0.5c0.6,0,1.1-0.2,1.4-0.5c0.3-0.3,0.5-0.8,0.5-1.4v-0.3h-1.3v0.3c0,0.4,0,0.6-0.1,0.7
		c-0.1,0.1-0.2,0.2-0.4,0.2c-0.2,0-0.3-0.1-0.4-0.2c-0.1-0.1-0.1-0.4-0.1-0.7v-1.2h2.4v0h0V25.6z M27.3,26.2h-1.1v-0.6
		c0-0.3,0-0.4,0.1-0.6c0.1-0.1,0.2-0.2,0.4-0.2c0.2,0,0.3,0.1,0.4,0.2c0.1,0.1,0.1,0.3,0.1,0.6V26.2z"/>
	<path class="st0" d="M20,0.1c-11,0-20,9-20,20c0,11,9,20,20,20s20-9,20-20C40,9,31,0.1,20,0.1z M22.8,9.5h1.4v5.3
		c0,0.2,0,0.3,0.1,0.4c0.1,0.1,0.2,0.1,0.3,0.1c0.1,0,0.2,0,0.4-0.1c0.2-0.1,0.3-0.2,0.4-0.4V9.5h1.4v6.9h-1.4v-0.8
		c-0.3,0.3-0.5,0.5-0.8,0.6c-0.3,0.1-0.6,0.2-0.8,0.2c-0.3,0-0.6-0.1-0.7-0.3c-0.2-0.2-0.2-0.5-0.2-0.9V9.5z M18.2,9.8
		c0.4-0.3,0.9-0.5,1.5-0.5c0.6,0,1.1,0.2,1.4,0.5c0.4,0.3,0.6,0.8,0.6,1.3v3.5c0,0.6-0.2,1-0.5,1.4c-0.4,0.3-0.9,0.5-1.5,0.5
		c-0.6,0-1.1-0.2-1.5-0.5c-0.4-0.3-0.6-0.8-0.6-1.4l0-3.6C17.6,10.6,17.8,10.1,18.2,9.8z M13.8,7.1l1,3.7h0.1l1-3.7h1.6l-1.8,5.4
		v3.9h-1.6v-3.7l-1.9-5.6H13.8z M29.6,32c-1,1-9.6,1-9.6,1s-8.6,0-9.6-1c-1-1-1-6-1-6v0c0,0,0-5,1-6c1-1,9.6-1,9.6-1
		c0,0,8.6,0,9.6,1c1,1,1,6,1,6C30.7,26,30.7,31,29.6,32z"/>
</g>
</svg>
